<?xml version="1.0" encoding="UTF-8" standalone="no"?>
<!DOCTYPE svg PUBLIC "-//W3C//DTD SVG 1.1//EN" "http://www.w3.org/Graphics/SVG/1.1/DTD/svg11.dtd">
<svg width="49.68" height="57.36" viewBox="0.00 0.00 207.00 239.00" xmlns="http://www.w3.org/2000/svg" xmlns:xlink="http://www.w3.org/1999/xlink">
<g stroke-linecap="round" transform="translate(-193.00, -145.00)" id="Layer_6">
<path d="M302.07,231.31 C302.07,231.31 301.98,231.15 301.98,231.15 C301.98,231.15 302.84,255.39 302.84,255.39 C302.84,255.39 307.07,251.62 307.07,251.62 C307.07,251.62 313.01,286.85 313.01,286.85 C318.76,282.10 334.28,269.47 336.93,268.12 C339.65,266.75 350.97,263.91 350.92,263.79 C349.64,261.61 347.45,255.62 347.05,254.27 C346.77,253.27 347.29,252.39 349.41,249.95 C351.51,247.56 364.01,234.46 365.95,232.28 C369.67,228.08 375.92,218.50 377.60,214.21 C379.00,210.55 379.57,203.34 378.81,200.66 C378.13,198.45 373.75,192.34 370.87,189.63 C369.25,188.12 363.56,184.30 363.39,183.68 C363.25,183.11 364.82,180.88 364.77,179.55 C364.74,178.76 358.79,164.63 357.28,162.67 C356.07,161.14 352.51,158.33 350.33,157.16 C346.18,155.01 338.63,153.18 333.84,152.50 C327.69,151.72 313.63,151.26 303.77,151.51 C294.53,151.94 275.42,153.49 266.66,154.53 C257.26,155.84 243.06,158.69 237.49,160.37 C230.88,162.41 221.50,166.49 217.69,168.97 C213.89,171.50 210.64,175.01 206.82,179.80 C203.51,183.92 196.06,192.46 196.06,192.56 C195.96,192.76 207.57,189.48 218.41,187.16 C222.43,186.31 222.76,186.28 222.91,186.34 C222.91,186.34 214.78,205.77 214.78,205.77 C222.39,197.40 238.48,187.51 238.89,187.34 C239.30,187.17 271.93,178.81 274.60,178.13 C274.60,178.13 265.39,195.55 265.39,195.55 C278.18,201.51 282.95,203.91 286.12,206.20 C287.58,207.30 289.80,210.08 290.03,211.39 C290.26,213.00 285.51,219.25 284.29,221.92 C283.71,223.47 281.84,227.06 281.78,227.33 C282.20,227.15 302.24,216.16 303.70,215.40 C308.00,213.18 314.49,210.71 317.53,210.14 C318.95,209.91 321.84,210.28 322.89,210.98 C324.03,211.82 324.69,215.16 324.36,217.70 C324.03,219.89 322.63,224.17 321.72,225.84 C320.76,227.47 318.10,229.96 316.43,230.69 C313.77,231.79 305.01,230.99 301.99,230.71" fill="none" stroke="rgb(0, 0, 0)" stroke-width="5.80" stroke-opacity="1.00" stroke-linejoin="round"/>
<path d="M365.56,182.09 C365.56,182.09 365.38,182.27 365.38,182.27 C365.38,182.27 386.03,162.74 386.03,162.74" fill="none" stroke="rgb(0, 0, 0)" stroke-width="5.80" stroke-opacity="1.00" stroke-linejoin="round"/>
<path d="M366.48,184.27 C366.48,184.27 396.82,185.59 396.82,185.59" fill="none" stroke="rgb(0, 0, 0)" stroke-width="5.80" stroke-opacity="1.00" stroke-linejoin="round"/>
<path d="M235.30,191.46 C235.30,191.46 235.50,191.35 235.50,191.35 C235.63,192.04 236.01,197.32 236.24,200.47 C236.38,204.16 235.62,208.72 233.35,211.18 C231.90,212.71 224.33,218.97 223.05,220.22 C223.05,220.22 238.06,223.20 238.06,223.20 C238.06,223.20 237.85,247.81 237.85,247.81 C237.85,247.81 260.26,257.56 260.26,257.56" fill="none" stroke="rgb(0, 0, 0)" stroke-width="5.80" stroke-opacity="1.00" stroke-linejoin="round"/>
<path d="M241.82,250.93 C243.65,257.71 248.29,274.61 251.17,278.43 C252.58,280.21 255.07,281.96 256.55,282.03 C260.43,282.11 291.87,269.07 296.16,267.29" fill="none" stroke="rgb(0, 0, 0)" stroke-width="5.80" stroke-opacity="1.00" stroke-linejoin="round"/>
<path d="M295.61,267.86 C295.61,267.86 303.65,254.37 303.65,254.37 C303.65,254.37 302.41,259.16 302.41,259.16" fill="none" stroke="rgb(0, 0, 0)" stroke-width="5.80" stroke-opacity="1.00" stroke-linejoin="round"/>
<path d="M279.97,276.99 C279.97,276.99 279.89,276.57 279.89,276.57 C279.89,276.57 290.16,295.73 290.16,295.73 C290.16,295.73 289.76,295.20 289.76,295.20" fill="none" stroke="rgb(0, 0, 0)" stroke-width="5.80" stroke-opacity="1.00" stroke-linejoin="round"/>
<path d="M284.35,287.56 C284.35,287.56 284.32,287.36 284.32,287.36 C284.32,287.36 282.00,312.39 282.00,312.39" fill="none" stroke="rgb(0, 0, 0)" stroke-width="5.80" stroke-opacity="1.00" stroke-linejoin="round"/>
<path d="M280.42,290.84 C280.42,290.84 258.38,311.17 258.38,311.17 C258.38,311.17 264.08,342.13 264.08,342.13 C264.08,342.13 280.05,310.25 280.05,310.25 C280.05,310.25 285.15,356.13 285.15,356.13 C285.15,356.13 288.65,356.19 288.65,356.19 C288.64,356.19 319.16,317.78 321.95,314.95 C326.18,310.66 334.64,303.59 337.15,301.52 C337.15,301.52 327.74,274.36 327.74,274.36 C327.74,274.36 327.64,274.72 327.64,274.72" fill="none" stroke="rgb(0, 0, 0)" stroke-width="5.80" stroke-opacity="1.00" stroke-linejoin="round"/>
<path d="M281.95,311.62 C281.95,311.62 314.19,283.91 314.19,283.91" fill="none" stroke="rgb(0, 0, 0)" stroke-width="5.80" stroke-opacity="1.00" stroke-linejoin="round"/>
<path d="M337.62,299.03 C338.32,299.39 339.40,300.80 339.83,302.22 C340.34,303.91 347.98,370.46 348.28,373.11" fill="none" stroke="rgb(0, 0, 0)" stroke-width="5.80" stroke-opacity="1.00" stroke-linejoin="round"/>
<path d="M257.51,322.15 C257.51,322.15 257.58,321.99 257.58,321.99 C257.58,321.99 235.80,380.22 235.80,380.22" fill="none" stroke="rgb(0, 0, 0)" stroke-width="5.80" stroke-opacity="1.00" stroke-linejoin="round"/>
<path d="M258.01,204.77 C258.02,204.38 257.66,203.58 257.04,203.13 C256.19,202.55 253.46,201.73 251.48,201.66 C248.55,201.57 244.77,204.09 243.46,206.07 C242.78,207.12 241.46,210.24 241.11,212.37 C240.80,214.36 241.39,217.58 242.12,219.03 C242.88,220.46 245.10,222.71 247.18,223.97 C249.05,225.09 251.97,225.88 253.12,225.80 C255.02,225.63 258.66,223.67 260.10,222.47 C261.56,221.23 262.80,219.31 263.11,218.27 C263.46,216.94 263.59,214.13 263.03,211.62 C262.59,209.73 260.44,205.82 259.23,204.63 C256.78,202.29 253.69,202.37 253.52,202.47 C253.43,202.52 253.27,202.66 253.03,202.89" fill="none" stroke="rgb(0, 0, 0)" stroke-width="5.80" stroke-opacity="1.00" stroke-linejoin="round"/>
<path d="M245.23,196.20 C245.60,196.00 247.38,195.86 251.96,196.37 C253.51,196.52 256.81,196.72 256.98,196.81" fill="none" stroke="rgb(0, 0, 0)" stroke-width="5.80" stroke-opacity="1.00" stroke-linejoin="round"/>
<path d="M264.07,211.20 C264.07,211.20 263.78,211.13 263.78,211.13 C263.78,211.13 312.51,209.60 312.51,209.60 C312.51,209.60 311.40,209.44 311.40,209.44" fill="none" stroke="rgb(0, 0, 0)" stroke-width="5.80" stroke-opacity="1.00" stroke-linejoin="round"/>
</g>
</svg>
