<?xml version="1.0" standalone="no"?>
<!DOCTYPE svg PUBLIC "-//W3C//DTD SVG 20010904//EN"
 "http://www.w3.org/TR/2001/REC-SVG-20010904/DTD/svg10.dtd">
<svg version="1.0" xmlns="http://www.w3.org/2000/svg"
 width="949.000000pt" height="727.000000pt" viewBox="0 0 949.000000 727.000000"
 preserveAspectRatio="xMidYMid meet">

<g transform="translate(0.000000,727.000000) scale(0.100000,-0.100000)"
fill="#000000" stroke="none">
<path d="M4620 7241 c-103 -23 -230 -63 -327 -103 -66 -27 -74 -28 -88 -14
-38 38 -142 29 -307 -25 -105 -34 -178 -73 -178 -94 0 -20 2 -20 84 20 134 65
345 110 376 79 14 -14 -42 -38 -135 -59 -77 -17 -216 -57 -283 -82 -30 -10
-42 -20 -40 -32 2 -9 5 -15 8 -15 3 1 59 18 125 39 175 53 164 51 137 25 -18
-17 -21 -25 -11 -36 10 -12 17 -9 45 16 55 47 91 62 198 76 142 19 149 18 90
-15 -97 -53 -139 -91 -100 -91 8 0 55 25 106 55 128 75 142 79 289 72 141 -6
265 -34 321 -71 56 -37 100 -87 112 -128 13 -43 38 -51 38 -13 0 70 -90 165
-194 204 -30 11 -107 28 -172 38 l-117 17 49 13 c27 7 72 13 101 13 53 0 77
15 52 32 -20 13 -119 0 -212 -28 -80 -24 -294 -58 -326 -52 -48 10 332 127
462 143 36 5 56 12 54 19 -6 18 -65 17 -157 -3z"/>
<path d="M3495 6900 c-152 -17 -271 -86 -343 -199 -37 -57 -63 -84 -129 -131
-61 -43 -97 -103 -96 -163 1 -49 19 -107 34 -107 5 0 12 0 17 0 4 0 7 14 7 32
0 28 6 35 70 69 79 44 108 51 54 15 -81 -55 -153 -193 -153 -296 -1 -89 37
-160 102 -191 40 -20 50 -21 90 -10 24 6 65 26 89 43 l46 31 -7 -34 c-39 -213
-31 -413 25 -595 28 -89 57 -147 134 -264 34 -52 87 -133 118 -180 70 -107
119 -157 135 -137 9 11 4 22 -23 53 -38 42 -38 42 -167 239 -134 205 -162 269
-193 445 -30 169 -10 410 52 628 14 51 23 95 20 99 -15 14 -37 -24 -58 -103
-23 -81 -27 -88 -78 -130 -29 -24 -71 -49 -93 -56 -35 -10 -45 -9 -76 8 -53
28 -77 76 -77 154 0 75 34 157 93 222 75 84 140 90 214 21 l26 -25 54 26 c72
34 157 56 251 63 56 4 77 10 77 20 0 7 -7 16 -16 20 -23 9 -203 -24 -287 -53
-54 -18 -73 -21 -84 -12 -12 9 -9 14 16 24 66 28 240 65 335 71 56 3 103 10
106 14 8 12 321 30 413 24 45 -3 162 -13 259 -22 174 -15 222 -13 201 8 -21
21 -351 50 -580 50 -186 0 -223 3 -223 15 0 11 -16 14 -73 14 -213 0 -572 -80
-732 -164 -33 -17 -63 -32 -67 -34 -5 -2 -8 7 -8 21 0 73 477 216 770 229 41
2 55 7 55 18 0 49 -485 -41 -715 -133 -57 -23 -62 -23 -40 -6 89 72 127 90
283 135 156 45 326 74 433 74 68 0 84 3 84 15 0 21 -136 20 -261 -1 -78 -13
-290 -64 -376 -90 -14 -4 -23 -2 -23 5 0 6 8 11 18 11 10 0 22 4 28 9 16 15
193 68 344 102 117 26 171 33 280 35 101 2 135 6 135 16 0 16 -68 29 -121 22
-32 -5 -44 -2 -51 10 -16 29 -181 42 -318 26z m215 -38 c44 -7 43 -8 -55 -26
-113 -21 -356 -79 -397 -95 -34 -13 -36 -6 -5 20 94 82 294 126 457 101z m31
-303 c-24 -4 -48 -12 -55 -17 -6 -5 -51 -15 -101 -22 -49 -7 -135 -26 -190
-42 -65 -20 -125 -31 -172 -32 -39 0 -65 2 -58 7 31 17 270 76 366 91 144 22
302 33 210 15z"/>
<path d="M4716 6709 c-47 -51 -86 -100 -86 -110 0 -11 3 -19 6 -19 9 0 204
203 204 212 0 4 -9 8 -19 8 -11 0 -55 -38 -105 -91z"/>
<path d="M5168 6754 c-7 -6 130 -144 143 -144 17 0 8 35 -14 60 -61 67 -113
101 -129 84z"/>
<path d="M4750 6498 c-97 -48 -177 -134 -234 -248 -73 -149 -101 -335 -56
-380 40 -40 141 -17 255 60 185 125 315 399 249 525 -25 49 -55 76 -70 64 -8
-7 -14 -7 -19 1 -12 19 -61 10 -125 -22z m165 -38 c16 -20 20 -40 20 -100 0
-68 -4 -83 -43 -164 -76 -159 -245 -299 -361 -300 l-46 -1 1 90 c1 192 109
384 267 475 66 39 131 39 162 0z"/>
<path d="M5250 6523 c-26 -10 -61 -47 -81 -85 -23 -45 -24 -54 -4 -62 12 -4
21 6 35 38 10 24 29 51 41 60 20 14 25 14 46 1 47 -31 62 -1 17 34 -28 22 -30
23 -54 14z"/>
<path d="M5485 6475 c-92 -17 -155 -41 -295 -108 -132 -64 -187 -105 -177
-131 6 -16 10 -15 39 9 45 38 234 131 341 167 84 28 104 31 222 32 111 1 141
-2 201 -22 127 -42 168 -96 129 -171 -53 -103 -355 -251 -513 -251 -56 0 -97
-14 -87 -31 10 -14 132 -11 204 7 36 8 125 44 197 79 181 88 254 162 254 258
0 48 -30 81 -104 116 -123 59 -260 74 -411 46z"/>
<path d="M3691 6150 c-64 -165 -68 -282 -13 -407 39 -88 42 -160 12 -378 -28
-210 -24 -380 10 -380 12 0 14 21 12 125 -2 86 4 169 17 265 31 213 29 282
-14 385 -28 68 -35 98 -35 154 0 77 19 161 55 243 14 30 22 59 19 64 -15 25
-35 2 -63 -71z"/>
<path d="M5048 6026 c-32 -29 -58 -58 -58 -65 0 -23 32 -9 79 34 26 25 51 45
56 45 4 0 41 -17 81 -37 54 -26 78 -33 86 -25 15 15 2 42 -20 42 -11 0 -44 14
-75 30 -31 17 -65 30 -74 30 -10 -1 -44 -25 -75 -54z"/>
<path d="M5129 5912 c-48 -88 -143 -237 -199 -312 -31 -42 -76 -105 -100 -140
-176 -262 -436 -476 -787 -647 -73 -36 -166 -75 -205 -88 -71 -22 -94 -46 -54
-53 45 -9 325 117 501 225 227 140 442 337 568 523 28 41 77 110 108 152 53
72 164 249 203 325 37 73 5 88 -35 15z"/>
<path d="M4810 5803 c-46 -82 -251 -389 -322 -484 -47 -63 -58 -83 -49 -92 18
-17 55 29 230 288 160 237 215 328 204 338 -16 17 -33 3 -63 -50z"/>
<path d="M3936 5274 c-10 -26 37 -96 105 -157 l61 -56 -20 -28 c-11 -15 -36
-44 -56 -62 -20 -19 -36 -41 -36 -48 0 -32 42 -7 104 62 l67 74 -93 93 -93 92
31 4 c18 2 79 -4 137 -12 135 -21 247 -21 247 -2 0 20 -23 26 -98 26 -37 0
-107 7 -157 15 -123 20 -191 20 -199 -1z"/>
<path d="M3190 5083 c-23 -43 -94 -158 -159 -258 -141 -217 -161 -249 -161
-264 0 -49 83 66 298 413 34 55 69 106 77 112 20 15 20 74 1 74 -8 0 -33 -35
-56 -77z"/>
<path d="M2141 4894 c-75 -27 -111 -56 -266 -215 -168 -172 -198 -220 -255
-394 -18 -55 -44 -120 -58 -145 -43 -76 -217 -333 -309 -457 -201 -270 -518
-796 -726 -1208 -312 -617 -423 -878 -502 -1181 -27 -105 -27 -194 0 -194 18
0 25 23 25 79 0 45 54 255 98 381 67 191 428 946 585 1220 210 369 439 730
582 920 107 141 274 396 305 465 15 33 37 94 50 135 36 121 74 181 205 321
214 229 241 244 435 244 105 0 143 -5 238 -29 62 -16 115 -26 119 -23 17 18
-16 37 -109 62 -130 36 -344 46 -417 19z"/>
<path d="M3486 4828 c-9 -12 -16 -30 -16 -39 0 -21 -91 -215 -164 -347 -58
-107 -67 -136 -40 -130 9 2 49 67 92 147 42 80 78 139 80 133 2 -7 9 -12 16
-12 16 0 206 -182 206 -197 0 -5 -35 -31 -77 -56 -149 -89 -237 -152 -255
-183 -16 -27 -23 -93 -44 -415 -15 -211 -30 -388 -34 -392 -8 -10 -70 198
-104 350 -43 192 -58 207 -258 252 -57 13 -103 29 -112 40 -25 27 -65 254 -73
404 -5 119 -4 137 14 177 39 88 135 170 200 170 18 0 33 4 33 8 0 14 -24 32
-43 32 -54 0 -168 -90 -215 -169 -26 -45 -27 -50 -26 -191 1 -97 9 -183 23
-261 37 -205 46 -218 171 -244 41 -8 101 -25 132 -36 69 -26 85 -53 118 -204
38 -176 113 -420 136 -445 37 -38 44 13 79 513 15 220 29 369 37 385 13 26
143 119 265 188 74 42 87 56 77 86 -8 27 -223 238 -241 238 -18 0 -18 -2 27
92 40 81 47 118 23 125 -6 2 -18 -6 -27 -19z"/>
<path d="M8786 4821 c-4 -6 2 -46 14 -89 11 -44 23 -111 27 -148 6 -54 12 -69
26 -72 14 -3 17 4 16 50 -1 86 -41 262 -61 266 -9 2 -19 -1 -22 -7z"/>
<path d="M8537 4683 c-17 -16 -3 -35 43 -58 60 -30 126 -87 146 -126 8 -16 14
-30 14 -32 0 -3 -48 -7 -107 -9 -136 -6 -181 -22 -359 -123 -173 -98 -265
-185 -225 -210 6 -3 33 17 62 45 46 45 194 138 310 196 73 36 128 47 229 48
83 0 110 -5 210 -37 63 -20 160 -61 215 -89 89 -47 107 -62 176 -142 144 -167
183 -265 183 -461 0 -121 -11 -166 -79 -308 -65 -137 -158 -214 -273 -223 -84
-8 -102 -13 -102 -29 0 -12 16 -15 78 -15 68 0 87 4 139 30 110 55 195 176
257 365 42 129 33 306 -23 456 -23 60 -96 162 -185 257 -50 53 -79 73 -176
121 -63 31 -152 68 -196 81 -78 24 -81 26 -98 67 -26 62 -89 128 -160 168 -68
38 -69 38 -79 28z"/>
<path d="M9065 4641 c-22 -10 -53 -30 -68 -45 -32 -30 -80 -128 -75 -154 7
-34 29 -16 53 43 41 103 113 143 232 131 42 -4 64 -3 69 5 24 40 -136 55 -211
20z"/>
<path d="M5713 4580 c-27 -32 -89 -189 -111 -286 -12 -49 -44 -201 -71 -339
-28 -137 -68 -315 -90 -395 -47 -171 -52 -205 -31 -205 20 0 95 283 161 610
66 330 83 393 131 503 40 92 40 92 77 92 20 0 54 -11 76 -23 l40 -23 3 -74 c7
-153 -49 -743 -103 -1095 -35 -225 -62 -456 -76 -639 -9 -137 -9 -160 4 -180
24 -36 136 -116 163 -116 30 0 61 30 85 84 16 36 49 239 75 449 3 32 10 55 14
50 5 -4 21 -100 35 -213 15 -113 33 -220 41 -237 11 -29 17 -33 51 -32 121 1
247 47 259 93 3 12 -6 68 -20 124 -30 118 -30 118 -11 102 9 -7 27 -10 45 -6
42 8 177 83 184 102 11 29 -24 80 -142 209 -64 71 -141 156 -170 189 -29 34
-66 66 -81 73 -48 20 -300 48 -313 35 -22 -22 5 -30 142 -47 74 -10 143 -22
153 -27 10 -5 35 -28 55 -51 20 -22 89 -98 152 -167 131 -142 164 -185 154
-201 -3 -6 -38 -26 -78 -45 l-71 -35 -33 73 c-52 112 -94 178 -114 178 -27 0
-23 -30 23 -170 22 -69 50 -169 63 -223 l23 -98 -25 -20 c-14 -10 -35 -21 -46
-24 -110 -21 -150 -25 -158 -17 -5 5 -17 61 -25 123 -21 158 -72 469 -79 480
-9 15 -32 10 -38 -8 -2 -10 -7 -38 -11 -63 -3 -25 -10 -72 -15 -105 -5 -33
-21 -143 -35 -244 -26 -182 -51 -274 -80 -285 -8 -3 -41 15 -75 39 l-60 45 0
87 c0 138 45 544 81 726 10 54 19 116 19 138 0 21 13 150 29 287 36 297 54
545 49 667 l-3 90 -55 32 c-66 40 -139 46 -167 13z"/>
<path d="M3746 4543 c-16 -16 -1 -33 68 -76 85 -55 317 -179 527 -283 154 -77
172 -92 213 -178 63 -134 272 -800 336 -1071 17 -71 51 -201 77 -287 38 -127
51 -158 65 -158 26 0 23 26 -22 168 -22 70 -57 201 -79 292 -83 344 -284 972
-357 1110 l-39 75 -160 80 c-224 113 -451 233 -511 271 -74 46 -111 64 -118
57z"/>
<path d="M8327 4224 c-8 -9 41 -104 53 -104 21 0 21 29 0 69 -19 38 -38 50
-53 35z"/>
<path d="M7844 4200 c-32 -13 -74 -69 -74 -99 0 -36 84 -121 102 -103 9 9 4
21 -26 51 -31 32 -37 44 -32 65 3 14 17 33 31 42 22 14 27 14 71 -5 55 -25 74
-26 74 -6 0 29 -108 70 -146 55z"/>
<path d="M8110 4080 c-33 -33 -20 -80 20 -80 38 0 64 62 38 88 -17 17 -35 15
-58 -8z"/>
<path d="M8213 3984 c-33 -26 -44 -54 -20 -54 17 1 90 53 91 65 2 21 -40 14
-71 -11z"/>
<path d="M7845 3956 c-9 -13 -33 -71 -53 -128 -35 -98 -37 -109 -36 -228 0
-109 4 -135 28 -205 15 -44 49 -118 75 -165 l48 -85 -46 -6 c-65 -9 -137 -42
-194 -90 l-47 -41 68 110 c80 125 100 175 82 197 -17 21 -37 19 -97 -9 -81
-38 -138 -102 -193 -219 -83 -176 -85 -189 -83 -452 3 -247 -1 -272 -54 -378
-13 -26 -21 -52 -18 -57 15 -24 33 -3 70 83 l40 92 -3 225 c-3 257 5 307 76
461 54 117 130 198 210 223 23 8 23 7 9 -26 -8 -18 -45 -80 -82 -138 -72 -112
-95 -157 -95 -190 0 -35 28 -22 95 46 79 78 166 124 237 124 26 0 49 -4 52 -9
3 -5 -31 -36 -77 -69 -103 -76 -146 -116 -182 -170 -21 -32 -25 -46 -17 -54 9
-9 23 -6 59 11 107 52 200 73 247 55 35 -13 11 -34 -106 -87 -167 -77 -173
-81 -173 -97 0 -12 14 -14 71 -12 49 2 83 -2 109 -13 55 -22 34 -36 -77 -51
-108 -15 -129 -31 -101 -73 30 -44 73 -133 73 -150 0 -10 -36 -39 -87 -71 -95
-59 -107 -70 -93 -84 20 -20 223 105 228 140 2 11 -15 56 -38 101 -22 44 -40
83 -40 85 0 3 31 8 69 10 161 12 203 100 66 138 l-44 12 88 43 c49 24 95 53
104 65 21 30 10 60 -29 76 -49 20 -104 17 -181 -11 -37 -13 -68 -23 -70 -21
-6 6 73 74 159 136 105 75 121 103 69 123 -20 7 -29 17 -26 26 3 7 -19 61 -48
120 -74 145 -91 211 -91 341 0 93 4 115 33 195 18 50 39 100 47 112 18 29 18
63 -1 63 -8 0 -22 -11 -30 -24z"/>
<path d="M1935 3658 c-30 -87 -62 -163 -96 -228 -35 -68 -51 -87 -114 -135
-40 -31 -76 -63 -79 -71 -7 -17 21 -47 63 -69 17 -8 31 -20 31 -24 0 -5 -49
-56 -109 -113 -60 -56 -115 -116 -124 -133 -8 -16 -31 -86 -52 -155 -63 -214
-195 -623 -214 -665 -11 -22 -53 -85 -96 -140 -78 -102 -215 -358 -215 -403 0
-35 38 -27 78 15 20 21 87 107 149 191 105 141 274 332 294 332 14 0 -14 -54
-218 -422 -106 -191 -193 -354 -193 -363 0 -25 30 -17 46 13 8 15 87 158 176
317 218 393 239 434 236 470 -2 25 -8 31 -31 33 -24 3 -42 -11 -120 -90 -51
-51 -146 -165 -211 -251 -65 -87 -120 -156 -123 -154 -10 11 85 177 159 276
107 142 111 150 153 286 20 66 58 188 85 270 27 83 69 215 94 295 l45 145 97
89 c104 96 156 160 148 180 -3 7 -28 23 -56 36 l-51 23 29 21 c67 48 128 114
156 170 45 90 100 237 94 252 -7 17 -25 18 -31 2z"/>
<path d="M5007 3650 c-49 -38 -117 -140 -117 -173 0 -75 103 -229 202 -304 90
-68 194 -170 207 -201 6 -15 31 -127 55 -249 24 -121 49 -229 54 -240 17 -31
271 -197 357 -233 156 -65 350 -133 384 -134 48 -1 61 22 39 76 -64 165 -97
233 -113 237 -15 3 -17 -2 -12 -33 3 -19 24 -77 46 -128 46 -104 50 -123 24
-109 -10 5 -72 28 -138 51 -66 23 -160 60 -210 81 -93 40 -329 192 -340 219
-4 8 -27 116 -51 239 -25 124 -51 236 -59 250 -17 33 -134 145 -208 199 -70
52 -130 127 -170 211 -30 63 -30 64 -13 96 10 18 38 52 63 76 l45 44 81 -85
c44 -47 113 -126 153 -177 78 -97 89 -105 117 -91 24 13 23 51 -2 43 -15 -4
-34 13 -89 83 -96 122 -241 272 -262 272 -9 0 -29 -9 -43 -20z"/>
<path d="M8986 3589 c-14 -11 -26 -27 -26 -34 0 -25 21 -28 44 -6 29 27 42 26
62 -4 20 -30 13 -99 -13 -127 -20 -22 -62 -23 -89 -3 -27 20 -44 18 -44 -5 0
-47 109 -72 151 -35 31 28 49 76 49 130 0 38 -5 52 -29 76 -35 34 -68 37 -105
8z"/>
<path d="M8210 3480 c0 -18 -81 -89 -115 -100 -19 -6 -78 -12 -132 -13 -59 -1
-97 -6 -96 -12 3 -16 42 -23 134 -24 77 -1 93 2 140 27 33 17 60 40 69 57 8
17 16 32 18 34 1 3 8 -1 14 -7 17 -17 48 -15 48 2 0 8 -10 22 -22 30 -25 18
-58 21 -58 6z"/>
<path d="M4026 3452 c-6 -9 43 -350 104 -717 32 -197 85 -604 94 -730 4 -44
22 -214 41 -377 20 -163 42 -395 50 -515 9 -120 24 -300 35 -400 14 -131 20
-250 20 -427 0 -134 3 -251 6 -260 3 -9 14 -16 24 -16 16 0 17 18 13 277 -3
170 -12 348 -23 458 -11 99 -24 257 -30 350 -10 156 -38 432 -75 725 -7 63
-17 153 -20 200 -10 133 -60 514 -99 745 -19 116 -51 314 -71 440 -33 209 -51
275 -69 247z"/>
<path d="M8780 3105 c-56 -32 -138 -56 -258 -76 -166 -27 -276 -16 -384 37
-40 20 -48 21 -58 9 -7 -8 -18 -15 -26 -15 -16 0 -164 -109 -164 -121 0 -6 6
-12 14 -15 16 -6 147 89 159 115 8 17 12 16 60 -9 61 -33 174 -60 249 -60 179
0 501 94 474 138 -10 16 -35 14 -66 -3z"/>
<path d="M8900 3081 c-49 -15 -110 -52 -110 -66 0 -21 34 -19 80 5 62 32 100
27 153 -20 26 -23 58 -66 74 -98 28 -57 28 -58 28 -257 0 -227 6 -187 -144
-860 -79 -356 -119 -570 -108 -582 12 -12 37 7 37 29 1 41 47 268 123 598 41
179 89 398 107 487 30 155 32 172 28 355 l-3 193 -39 73 c-41 76 -75 110 -139
137 -40 16 -50 17 -87 6z"/>
<path d="M8805 2494 c-12 -19 -14 -29 -5 -39 20 -24 -9 -185 -101 -558 -24
-100 -80 -221 -111 -241 -21 -14 -34 -14 -123 -1 -55 8 -197 19 -315 24 -118
6 -248 16 -287 22 l-73 12 -30 94 c-17 51 -39 135 -50 185 -23 100 -31 115
-70 130 -43 17 -231 48 -291 48 -71 0 -104 -12 -146 -52 -88 -85 -53 -164 59
-138 54 12 128 13 147 1 9 -6 -17 -9 -70 -8 -69 1 -92 -3 -126 -21 -86 -45
-100 -150 -23 -167 l31 -7 -35 -38 c-44 -49 -78 -115 -74 -143 2 -18 11 -23
45 -27 35 -4 41 -8 33 -20 -14 -22 -12 -60 4 -66 7 -3 56 2 109 10 53 9 110
16 127 16 30 0 30 0 30 -59 0 -69 15 -118 40 -131 40 -21 143 -5 148 23 4 21
-25 34 -41 18 -6 -6 -28 -11 -49 -11 -47 0 -56 15 -64 108 -9 95 -19 100 -154
82 -56 -7 -103 -10 -106 -8 -11 11 68 68 108 78 96 24 123 35 123 50 0 25 -41
23 -143 -8 -177 -55 -189 -52 -133 24 58 80 107 104 231 113 64 5 85 10 85 20
0 24 -55 33 -170 25 -166 -10 -164 -10 -149 33 23 66 114 81 287 48 78 -15
100 -16 110 -6 19 19 -37 63 -124 96 -79 31 -99 33 -196 20 -59 -7 -63 -6 -63
12 0 10 16 34 35 53 30 29 43 34 95 38 63 5 232 -21 287 -43 22 -10 34 -23 39
-42 24 -111 78 -304 92 -333 15 -31 23 -36 77 -46 33 -7 159 -17 280 -23 121
-6 275 -19 342 -28 145 -19 170 -13 209 52 37 63 83 197 105 305 11 52 30 140
44 195 21 87 29 135 49 301 4 29 -8 54 -25 54 -4 0 -14 -12 -24 -26z"/>
<path d="M5036 2471 c-3 -5 5 -33 19 -63 31 -67 31 -79 -1 -109 -109 -100
-153 -191 -100 -205 29 -7 114 28 122 51 11 27 -5 30 -51 7 -25 -12 -48 -22
-50 -22 -18 0 5 33 70 99 52 53 75 85 75 102 0 29 -55 149 -69 149 -5 0 -12
-4 -15 -9z"/>
<path d="M5234 2337 c-39 -67 -146 -275 -239 -461 l-167 -339 1 -91 c2 -124
19 -364 26 -376 3 -6 13 -10 22 -10 14 0 15 11 9 82 -3 46 -8 153 -12 238 l-5
155 116 230 c64 127 135 270 156 319 22 48 75 148 119 222 44 74 80 138 80
144 0 5 -8 10 -17 10 -12 -1 -42 -41 -89 -123z"/>
<path d="M6122 2057 c-14 -17 -92 -234 -152 -427 -168 -534 -374 -1045 -461
-1145 -53 -61 -79 -69 -209 -68 -94 0 -145 7 -278 36 -90 20 -179 45 -198 57
-42 24 -60 25 -68 5 -13 -34 84 -69 314 -115 140 -27 180 -32 265 -28 170 8
201 36 322 293 75 159 231 577 308 820 76 243 176 537 187 552 10 13 3 33 -11
33 -5 0 -13 -6 -19 -13z"/>
<path d="M4860 1874 c-161 -123 -320 -267 -320 -291 0 -33 47 -5 141 85 56 53
143 129 193 168 84 64 107 93 81 100 -5 1 -48 -27 -95 -62z"/>
<path d="M7670 1380 c0 -13 7 -20 19 -20 11 0 76 -11 145 -25 69 -14 185 -29
258 -34 73 -6 166 -15 206 -22 72 -12 103 -5 88 19 -9 15 -125 32 -281 42 -77
5 -200 21 -274 35 -161 30 -161 30 -161 5z"/>
</g>
</svg>
